<svg width="164" height="30" viewBox="0 0 164 30" fill="none" xmlns="http://www.w3.org/2000/svg">
<path d="M13.084 17.0409C12.2313 16.078 12.0576 14.4996 12.7208 13.4579C12.7682 13.379 12.8313 13.3001 12.8945 13.2211C12.9577 13.1422 13.0208 13.0633 13.084 13.0002C13.9051 12.1794 15.0893 11.9742 16.1156 12.353C16.7472 12.5898 17.4893 12.6371 17.9788 12.1478C17.9946 12.1321 18.0104 12.1163 18.0262 12.1005C18.0894 12.0374 18.1683 11.9584 18.2473 11.8953C19.3052 11.5007 19.4946 10.6168 20.1736 9.95387C20.221 9.90652 20.2841 9.84338 20.3315 9.79603C20.4894 9.63819 20.6473 9.48035 20.8052 9.32251C20.8526 9.27516 20.8999 9.22781 20.9631 9.16467C21.5 8.59645 22.0052 7.94931 22.5579 7.38108C23.1263 6.81286 23.7737 6.33934 24.3421 5.78691C24.5316 5.5975 24.7211 5.40809 24.879 5.25025C25.3527 4.77673 25.3369 4.00332 24.8316 3.57715C22.9526 1.98297 20.7894 0.925447 18.5157 0.404577C18.4209 0.388793 18.3104 0.357225 18.2157 0.341441C16.6525 -0.321485 15.0735 0.199385 13.4314 0.120466C13.3366 0.120466 13.2419 0.13625 13.1314 0.152034C12.2471 0.025762 11.5366 0.388793 10.8734 0.625552C10.7945 0.65712 10.6997 0.672904 10.605 0.704472C9.23127 1.14642 7.88913 1.77778 6.65753 2.61433C6.56279 2.67747 6.48384 2.7406 6.40489 2.80374C5.83646 3.29304 5.34697 3.82969 4.81012 4.33478C4.2259 4.85565 3.5943 5.36074 3.12061 5.9921C1.76268 7.79147 0.862665 9.81181 0.420551 11.9111C0.404761 12.0058 0.388971 12.1005 0.357391 12.1952C0.310022 12.6371 0.199493 13.0791 0.0889644 13.521C0.0573848 13.6157 0.041595 13.6947 0.0258052 13.7894C-0.0847235 14.5944 0.199493 15.2573 0.136334 15.9991C0.120544 16.1254 0.136334 16.2517 0.167914 16.3779C0.183703 16.4726 0.183703 16.5831 0.199493 16.6778C0.4995 19.4558 1.589 22.1706 3.45219 24.4593C3.48377 24.4909 3.51535 24.5382 3.54693 24.5856C4.32063 25.9746 5.72593 26.4955 6.84701 27.553C6.92595 27.6161 7.02069 27.6635 7.09964 27.7108C9.19969 29.0367 11.5524 29.7943 13.9366 29.9837C14.0314 29.9837 14.1261 29.9995 14.2208 29.9995C16.6683 30.0153 18.9578 29.668 21.1684 28.7526C21.2631 28.7052 21.3578 28.6736 21.4368 28.6263C22.6368 28.0738 23.7737 27.3478 24.8158 26.4639C25.3211 26.0219 25.3211 25.2485 24.8474 24.775C24.2474 24.1594 23.3631 23.2913 22.4316 22.3601C21.9579 21.8865 21.3421 21.6024 20.8684 21.1447C20.4262 20.7027 20.1104 20.0714 19.621 19.5505C19.5736 19.5032 19.5262 19.4558 19.4789 19.4085C18.8946 18.8244 18.3736 18.3036 17.963 17.8932C17.4893 17.4197 16.7314 17.467 16.0998 17.7038C15.263 18.0195 14.2998 17.9248 13.5261 17.4197C13.4471 17.3723 13.3682 17.3092 13.2892 17.2461C13.2261 17.1671 13.1629 17.104 13.084 17.0409Z" fill="#1F074D"/>
<path d="M33.0581 4.72938C32.537 4.72938 32.016 4.76095 31.5107 4.83987C30.9738 4.91879 30.437 5.04506 29.9317 5.25025C29.6159 5.37652 29.3001 5.51858 28.9685 5.66063C28.4633 5.86582 27.9422 6.05523 27.4843 6.35513C27.4369 6.3867 27.3896 6.41826 27.358 6.44983C27.2948 6.49718 27.2474 6.52875 27.1843 6.56032C26.1737 7.14432 25.5737 8.10715 24.7369 8.95948C24.7053 9.00683 24.6579 9.06997 24.6263 9.11732C23.9947 10.1591 23.521 11.2324 23.1105 12.4162C23.0947 12.4793 23.0789 12.5424 23.0631 12.6056C22.8895 13.3632 22.7947 14.1682 22.7947 14.9732C22.7947 16.2043 23.0158 17.3881 23.4105 18.493C23.4263 18.5561 23.4579 18.6193 23.4895 18.6824C23.8842 20.0398 24.6105 21.0026 25.5264 21.9339C25.5737 21.9812 25.6211 22.0286 25.6685 22.0759C25.7158 22.1233 25.7632 22.1706 25.8106 22.218C25.8579 22.2654 25.9053 22.3127 25.9527 22.3601C26.679 23.1808 27.658 23.7806 28.6369 24.2226C28.7001 24.2541 28.7475 24.2857 28.8106 24.3015C29.1106 24.4435 29.4107 24.554 29.7107 24.6645C29.7738 24.6803 29.837 24.7119 29.9001 24.7276C30.2791 24.8066 30.6738 24.8381 31.0686 24.9171C31.6054 25.0118 32.1265 25.2012 32.6791 25.2327C32.8055 25.2327 32.9476 25.2327 33.0897 25.2327C33.9265 25.2327 34.7318 25.138 35.5213 24.9486C35.5529 24.9328 35.5845 24.9328 35.6318 24.9171C36.3582 24.7434 36.9582 24.3804 37.7477 24.1279C37.8108 24.0963 37.874 24.0647 37.9214 24.0332C38.7582 23.5912 39.5319 23.023 40.2109 22.3758C40.2583 22.3285 40.3056 22.2811 40.353 22.2338C40.6372 21.8708 40.7793 21.5077 41.0162 21.2078C41.332 20.7659 41.8057 20.4502 42.0741 19.9767C42.8951 18.493 43.3688 16.8041 43.3688 14.9889C43.3688 14.1208 43.2583 13.2685 43.053 12.4635C43.0373 12.4004 43.0215 12.3372 43.0057 12.2583C42.7688 11.6112 42.5162 11.0114 42.2636 10.3485C42.232 10.2853 42.2004 10.2222 42.1688 10.1591C42.1372 10.0959 42.1057 10.0328 42.0741 9.98544C42.0425 9.9223 42.0109 9.87495 41.9793 9.81181C41.8688 9.433 41.6004 9.24359 41.3635 9.00683C41.0793 8.70694 40.9214 8.31234 40.6372 8.01244C40.1161 7.44422 39.5161 6.93913 38.8845 6.49718C38.4266 6.1815 37.9056 6.00788 37.4003 5.80269C36.6582 5.48701 35.9792 5.04506 35.1739 4.93457C35.1108 4.91879 35.0476 4.903 34.9687 4.88722C34.3213 4.79252 33.7055 4.72938 33.0581 4.72938ZM33.1686 16.9462C32.7265 16.9935 32.2528 16.9304 31.8896 16.662C31.6686 16.5042 31.5265 16.2675 31.416 16.0149C31.3844 15.9676 31.3528 15.9202 31.337 15.8729C31.3054 15.8255 31.2896 15.7781 31.2581 15.7308C31.2423 15.6677 31.2107 15.6203 31.1949 15.5572C31.1791 15.5256 31.1791 15.4783 31.1633 15.4467C31.1002 15.1626 30.9738 14.8942 30.9265 14.6101C30.8475 14.0577 31.4949 13.6157 31.9686 13.379C32.016 13.3474 32.0791 13.3158 32.1265 13.2843C32.3949 13.1422 32.7107 13.0475 33.0581 13.0475C33.2002 13.0475 33.3265 13.0633 33.4528 13.0791C33.8318 13.158 34.2265 13.2527 34.5108 13.5053C34.9213 13.8367 34.9845 14.4523 35.0002 14.9889C35.0002 15.0521 35.0002 15.0994 35.0002 15.1468C34.9845 15.2888 34.9687 15.4467 34.9213 15.573C34.9055 15.6361 34.8739 15.6992 34.8581 15.7466C34.6371 16.4411 33.9107 16.8041 33.1686 16.9462Z" fill="#1F074D"/>
<path d="M51.3427 0.830744C51.3427 0.373009 50.9795 0.00997799 50.5216 0.00997799C49.969 0.00997799 49.4006 0.0888978 48.8479 0.0888978C48.3584 0.0888978 47.8374 0.00997799 47.3795 0.00997799C47.3005 0.00997799 47.2216 0.00997799 47.1426 0.00997799C46.4952 0.00997799 45.8478 0.00997799 45.0741 0.00997799C44.4268 -0.00580596 43.9215 0.530849 43.9215 1.17799C43.9215 1.66729 43.9215 2.31444 43.9215 3.05628C43.9215 3.15099 43.9215 3.24569 43.9215 3.34039C43.9689 4.66624 44.1268 5.86583 43.9215 7.2706C43.9215 7.33373 43.9215 7.39687 43.9215 7.46C43.9215 8.58066 43.9215 9.76446 43.9215 10.9798C43.9215 11.043 43.9215 11.1061 43.9215 11.1692C43.9689 12.4004 43.9689 13.6 43.9215 14.7206C43.9215 14.7838 43.9215 14.8469 43.9215 14.91C43.9215 16.3148 43.9215 17.7196 43.9215 19.077C43.9215 19.2664 43.9215 19.4558 43.9215 19.6452C43.9689 20.1345 43.9689 20.8132 43.9215 21.3183C43.9215 21.5077 43.9215 21.6813 43.9215 21.855C43.9215 21.8865 43.9215 21.9023 43.9215 21.9181C43.9215 22.6915 44.0478 23.4807 44.0794 24.2541C44.0794 24.4435 44.0794 24.6329 44.0794 24.8381C44.0478 25.6116 43.9215 26.385 43.9215 27.1584C43.9215 27.5056 43.9215 27.8213 43.9215 28.0739C43.9215 28.721 44.4583 29.2419 45.1057 29.2419C45.1531 29.2419 45.2005 29.2419 45.2636 29.2419C45.3426 29.2419 45.4373 29.2419 45.5321 29.2419C46.89 29.0682 48.4532 29.0682 49.8269 29.2419C49.89 29.2419 49.969 29.2419 50.0321 29.2419C50.4743 29.2419 50.948 29.2419 51.4059 29.2419C51.469 29.2419 51.5322 29.2419 51.5953 29.2419C52.369 29.2419 53.1743 29.084 53.9954 29.084C54.7691 29.084 55.5428 29.2419 56.3165 29.2419C57.706 29.2419 58.906 29.2419 59.7429 29.2419C60.3903 29.2419 60.9113 28.721 60.9113 28.0739C60.9113 27.9476 60.9113 27.8055 60.9113 27.6477C60.9113 27.5845 60.9113 27.5372 60.8955 27.4741C60.7376 26.7006 60.6745 25.9904 60.7376 25.2327C60.8008 24.4435 60.9113 23.6701 60.9113 22.8809C60.9113 22.7547 60.9113 22.6284 60.9113 22.5021C60.9113 22.439 60.9113 22.3758 60.9113 22.2969C60.8324 21.3025 60.8324 20.2766 60.9113 19.3295C60.9113 19.2506 60.9113 19.1559 60.9113 19.077C60.9113 18.5246 60.4692 18.051 59.9008 18.051C59.2218 18.051 58.5586 18.1931 57.8797 18.1931C57.1376 18.1931 56.3639 18.0353 55.7007 18.051C55.6375 18.051 55.5586 18.051 55.4954 18.051C54.4533 18.2089 53.6006 18.2089 52.6059 18.051C52.5111 18.051 52.4164 18.051 52.3375 18.051C51.7374 18.051 51.3427 18.051 51.3427 18.051C51.3427 18.051 51.3427 17.0409 51.3427 15.5098C51.3427 14.7364 51.248 13.963 51.2164 13.1738C51.169 11.8953 51.3585 10.5694 51.3427 9.21202C51.3427 9.14889 51.3427 9.06997 51.3427 8.99105C51.3427 8.21763 51.3427 7.44422 51.3427 6.68659C51.3427 6.60767 51.3427 6.52875 51.3427 6.46561C51.3585 5.2976 51.3585 4.27165 51.3427 3.10363C51.3427 3.05628 51.3427 2.99315 51.3427 2.94579C51.3427 2.09346 51.3427 1.35161 51.3427 0.830744Z" fill="#1F074D"/>
<path d="M71.6326 0.262521C71.1115 0.262521 70.5905 0.294089 70.101 0.373009C69.5641 0.451929 69.0273 0.5782 68.522 0.783392C68.2062 0.909663 67.8904 1.05172 67.5588 1.19377C67.0536 1.39897 66.5325 1.58837 66.0746 1.88827C66.0272 1.91984 65.9799 1.9514 65.9483 1.96719C65.8851 2.01454 65.8377 2.04611 65.7746 2.07768C64.764 2.66168 64.164 3.6245 63.343 4.46105C63.3114 4.5084 63.264 4.57154 63.2324 4.61889C62.6166 5.64485 62.1271 6.73394 61.7166 7.90195C61.7008 7.96509 61.685 8.02823 61.6692 8.09136C61.4956 8.84899 61.4008 9.63819 61.4008 10.459C61.4008 11.6901 61.6219 12.8739 62.0166 13.963C62.0324 14.0261 62.064 14.0893 62.0956 14.1524C62.4903 15.5098 63.2166 16.4726 64.1325 17.4039C64.1798 17.4512 64.2272 17.4986 64.2746 17.546C64.3219 17.5933 64.3693 17.6407 64.4167 17.688C64.464 17.7354 64.5114 17.7827 64.5588 17.8301C65.2851 18.6508 66.2483 19.2506 67.243 19.6926C67.3062 19.7241 67.3536 19.7557 67.4167 19.7715C67.7167 19.9135 68.0167 20.024 68.3167 20.1345C68.3799 20.1503 68.4431 20.1819 68.5062 20.1977C68.8852 20.2766 69.2799 20.3081 69.6747 20.3871C70.2115 20.4818 70.7326 20.6712 71.2694 20.7027C71.3958 20.7027 71.5379 20.7027 71.68 20.7027C72.5168 20.7027 73.3221 20.608 74.0958 20.4186C74.1274 20.4028 74.159 20.4028 74.2064 20.3871C74.9327 20.2134 75.5327 19.8504 76.3222 19.5979C76.3853 19.5663 76.4485 19.5347 76.4959 19.5032C77.3327 19.0612 78.1064 18.493 78.7854 17.8458C78.8328 17.7985 78.8801 17.7511 78.9275 17.7038C79.2117 17.3408 79.3538 16.9777 79.5907 16.6778C79.9065 16.2517 80.3802 15.9202 80.6486 15.4467C81.4697 13.9788 81.9434 12.2741 81.9434 10.459C81.9434 9.59084 81.8328 8.7385 81.6276 7.93352C81.6118 7.87039 81.596 7.80725 81.5802 7.72833C81.3433 7.08119 81.1065 6.4814 80.8381 5.81847C80.8065 5.75534 80.7749 5.6922 80.7433 5.64485C80.7118 5.58171 80.6802 5.51858 80.6486 5.47123C80.617 5.40809 80.5854 5.36074 80.5539 5.2976C80.4433 4.91879 80.1749 4.72938 79.9381 4.49262C79.6538 4.19273 79.4959 3.79813 79.2117 3.49823C78.6907 2.93001 78.1064 2.42492 77.4591 1.99876C77.0169 1.69886 76.4801 1.50945 75.9906 1.30426C75.2485 0.988583 74.5695 0.562416 73.78 0.436145C73.7169 0.420361 73.6537 0.404577 73.5748 0.388793C72.8958 0.309873 72.2642 0.262521 71.6326 0.262521ZM71.7431 12.4319C71.301 12.4793 70.8273 12.4162 70.4642 12.1478C70.2431 11.99 70.101 11.7532 69.9905 11.5007C69.9589 11.4533 69.9273 11.406 69.9115 11.3586C69.8799 11.3113 69.8642 11.2639 69.8326 11.2166C69.8168 11.1692 69.7852 11.1061 69.7694 11.043C69.7536 11.0114 69.7536 10.964 69.7378 10.9325C69.6747 10.6484 69.5484 10.38 69.501 10.0959C69.422 9.54349 70.0694 9.11732 70.5431 8.88056C70.5905 8.84899 70.6536 8.81742 70.701 8.78586C70.9694 8.6438 71.2852 8.5491 71.6326 8.5491C71.7589 8.5491 71.901 8.56488 72.0274 8.58066C72.4063 8.65958 72.7853 8.75429 73.0853 9.00683C73.4958 9.33829 73.559 9.95387 73.5748 10.4905C73.5748 10.5537 73.5748 10.601 73.5748 10.6484C73.559 10.7904 73.5432 10.9325 73.4958 11.0745C73.48 11.1377 73.4484 11.2008 73.4327 11.2482C73.1958 11.9426 72.4853 12.3057 71.7431 12.4319Z" fill="#1F074D"/>
<path d="M102.454 9.81181C102.454 8.6438 102.186 7.52314 101.681 6.51297C101.649 6.44983 101.617 6.37091 101.57 6.30778C101.128 5.43966 100.686 4.7136 99.8964 4.09802C99.8332 4.05067 99.7859 3.98753 99.7227 3.94018C99.2332 2.97736 98.2227 2.83531 97.3226 2.29865C97.2595 2.26708 97.1805 2.23552 97.1174 2.20395C97.0542 2.17238 96.9911 2.14081 96.9279 2.10924C96.8647 2.07768 96.8016 2.04611 96.7384 2.03032C95.9016 1.66729 95.0331 1.38318 94.0068 1.24113C93.9278 1.22534 93.8489 1.20956 93.7699 1.19377C93.1699 1.09907 92.5541 1.05172 91.9225 1.05172C91.9225 1.05172 91.7015 1.05172 91.3383 1.05172C91.2594 1.05172 91.1962 1.05172 91.1014 1.05172C90.2172 0.925447 89.3488 1.08329 88.4803 1.05172C88.4172 1.05172 88.354 1.05172 88.2909 1.05172C87.4698 1.05172 86.6645 1.05172 86.0487 1.05172C85.4961 1.05172 85.054 1.47789 85.054 2.03032C85.054 2.07768 85.054 2.14081 85.054 2.18816C85.054 2.2513 85.054 2.29865 85.054 2.36179C84.975 3.38774 84.975 4.25586 85.054 5.32917C85.054 5.37652 85.054 5.42387 85.054 5.47123C85.054 5.5975 85.054 5.73955 85.054 5.86583C85.054 5.91318 85.054 5.96053 85.054 6.00788C84.975 7.01805 84.975 8.17028 85.054 9.22781C85.054 9.27516 85.054 9.32251 85.054 9.38565C85.054 10.2064 85.054 11.043 85.054 11.8953C85.054 11.9584 85.054 12.0216 85.054 12.0847C84.975 13.2527 84.975 14.2787 85.054 15.4625C85.054 15.5256 85.054 15.573 85.054 15.6361C85.054 16.078 85.054 16.52 85.054 16.9462C85.054 17.0093 85.054 17.0724 85.054 17.1356C85.0066 17.8932 84.9908 18.5719 85.0066 19.298C85.0224 19.9609 85.1487 20.608 85.1961 21.271C85.2119 21.5551 85.2119 21.8392 85.1961 22.1233C85.1487 22.7862 85.0382 23.4334 85.0382 24.0963C85.0382 24.333 85.0382 24.5382 85.0382 24.7119C85.0382 25.2643 85.4961 25.7063 86.0329 25.7063C86.0487 25.7063 86.0803 25.7063 86.0961 25.7063C86.6961 25.722 87.3435 25.722 87.9435 25.722C88.0224 25.722 88.1014 25.722 88.1645 25.722C89.0014 25.722 89.7277 25.722 90.6278 25.722C90.6751 25.722 90.7067 25.722 90.7541 25.722C90.8014 25.722 90.833 25.722 90.8804 25.722C91.433 25.722 91.8594 25.2801 91.8594 24.7276C91.8594 24.6803 91.8594 24.6487 91.8594 24.6014C91.8594 24.554 91.8594 24.5067 91.8594 24.4593C91.9067 23.4807 91.6541 22.5337 91.812 21.6182C91.8278 21.5551 91.8436 21.4762 91.8594 21.3972C91.9067 20.6396 91.9067 19.7715 91.8594 19.0928C91.8594 19.0139 91.8594 18.9507 91.8594 18.9034C91.8594 18.6666 91.8594 18.5246 91.8594 18.5246C92.3488 18.5246 92.8225 18.493 93.2962 18.4456C93.2962 18.4456 93.612 19.0454 94.0541 19.8978C94.0699 19.9451 94.1015 19.9925 94.1173 20.024C94.5278 20.6396 94.8121 21.2236 95.0489 21.8234C95.0805 21.8708 95.0963 21.9339 95.1279 21.9812C95.2226 22.1549 95.3331 22.3285 95.4121 22.5021C95.4436 22.5652 95.4752 22.6284 95.5068 22.6757C95.6963 23.1019 95.9647 23.4649 96.2016 23.8595C96.9911 25.217 96.2647 24.2541 97.0542 25.6115C97.5121 26.4007 98.2227 27.5845 98.7121 28.358C98.9964 28.8315 99.6122 29.0051 100.102 28.7368C100.291 28.6421 100.481 28.5474 100.702 28.4211C100.749 28.3895 100.796 28.3737 100.844 28.3422C101.175 28.1212 101.539 27.9318 101.902 27.7424C101.965 27.7108 102.028 27.6792 102.091 27.6477C102.423 27.4425 102.754 27.2215 103.118 27.0321C103.591 26.7796 104.081 26.3376 103.828 25.8641C103.228 24.7276 102.028 22.66 101.728 22.0917C101.696 22.0444 101.681 21.997 101.649 21.9655C101.254 21.4604 101.002 21.0342 100.796 20.5765C100.56 20.0398 100.37 19.4874 100.102 18.9665C100.07 18.6982 99.9122 18.4614 99.7227 18.1931C99.3437 17.6564 99.0911 17.0566 98.7911 16.4726C98.7437 16.3937 98.7279 16.3464 98.7279 16.3464C98.9332 16.1885 99.1385 16.0307 99.3279 15.8729C99.3911 15.8255 99.4543 15.7624 99.5174 15.715C100.117 15.0047 101.16 14.6891 101.349 13.6789C101.365 13.6 101.365 13.521 101.381 13.4263C101.854 12.8423 102.281 12.1163 102.328 11.185C102.344 11.1061 102.36 11.043 102.36 10.964C102.423 10.5852 102.454 10.2064 102.454 9.81181ZM91.9225 6.98649C92.1752 6.98649 92.4278 7.01805 92.6646 7.06541C93.1699 7.17589 93.691 7.30216 94.0857 7.64941C94.4805 7.99666 94.7173 8.53331 94.9857 8.92791C95.0173 9.00683 95.0331 9.06997 95.0647 9.14889C95.1279 9.36986 95.1594 9.59084 95.1594 9.8276C95.1594 10.1433 95.0963 10.4432 94.9857 10.7273C94.9542 10.8062 94.9226 10.8693 94.891 10.9325C94.4331 11.548 94.1489 12.1321 93.4068 12.3372C93.3278 12.3688 93.2489 12.4004 93.1699 12.4319C92.791 12.574 92.3646 12.6529 91.9225 12.6529C91.9225 12.6529 91.9225 11.9426 91.9225 11.0272C91.9225 10.9798 91.9225 10.9167 91.9225 10.8536C91.8594 10.2695 91.7804 9.70133 91.7962 9.11732C91.812 8.45439 91.9225 7.79147 91.9225 7.12854C91.9225 7.03384 91.9225 6.98649 91.9225 6.98649Z" fill="#1F074D"/>
<path d="M108.281 1.0675C107.697 1.0675 107.254 1.57259 107.286 2.1566C107.302 2.31444 107.302 2.47227 107.302 2.63011C107.286 3.35618 107.191 4.08224 107.191 4.8083C107.191 5.21868 107.302 5.32917 107.302 5.78691C107.302 5.85004 107.191 6.24464 107.191 6.29199C107.191 7.44422 107.175 8.59645 107.175 9.76446C107.175 9.85917 107.175 9.93809 107.175 10.0328C107.081 10.5852 107.207 11.0903 107.254 11.5954C107.27 11.6743 107.27 11.7532 107.286 11.8164C107.302 12.1952 107.318 12.5424 107.302 12.8897C107.27 13.6157 107.16 14.326 107.16 15.0521C107.16 15.6203 107.16 16.157 107.175 16.741C107.175 16.8199 107.175 16.8988 107.175 16.9777C107.175 17.0409 107.175 17.1198 107.175 17.1829C107.175 17.5775 107.175 17.9563 107.175 18.3351C107.175 18.4141 107.175 18.493 107.175 18.5719C107.318 19.3295 107.318 20.1345 107.16 21.0026C107.16 21.0973 107.16 21.1763 107.16 21.271C107.16 22.3285 107.16 23.386 107.175 24.412C107.175 24.4593 107.175 24.5225 107.175 24.5698C107.175 25.7063 107.175 26.6533 107.175 27.332C107.175 27.9318 107.665 28.4211 108.265 28.4211C108.818 28.4211 109.528 28.4211 110.286 28.4211C110.349 28.4211 110.412 28.4211 110.476 28.4211C111.96 28.358 113.239 28.358 114.691 28.4211C115.307 28.4527 115.781 27.9318 115.781 27.3162C115.781 26.8901 115.781 26.3534 115.781 25.7852C115.781 25.722 115.781 25.6589 115.781 25.5958C115.813 24.6803 115.655 23.749 115.67 22.7862C115.686 22.0444 115.781 21.0026 115.781 20.2766C115.781 19.9609 115.781 19.7715 115.781 19.7715C116.286 19.7715 116.791 19.6136 117.313 19.5979C117.786 19.5821 118.244 19.7084 118.67 19.7557C119.286 19.8346 119.776 19.298 119.776 18.6824C119.776 18.635 119.776 18.5877 119.776 18.5403C119.776 18.493 119.776 18.4456 119.776 18.3825C119.697 17.5775 119.697 16.7725 119.776 15.9518C119.776 15.8729 119.76 15.7939 119.76 15.715C119.697 14.5312 119.697 13.3159 119.776 12.1321C119.776 12.0689 119.776 12.0216 119.776 11.9742C119.776 11.8479 119.776 11.7375 119.776 11.627C119.776 11.0272 119.286 10.5379 118.686 10.5379C118.623 10.5379 118.576 10.5379 118.513 10.5379C117.897 10.5221 117.218 10.7589 116.539 10.6326C116.302 10.5852 116.065 10.5379 115.813 10.5379C115.813 10.5379 115.813 10.1591 115.813 9.62241C115.813 8.89634 115.576 8.50175 115.639 7.77568C115.686 7.2706 115.844 6.76551 115.813 6.22886C115.813 6.14994 115.813 6.07102 115.813 6.00788C115.813 5.81847 115.813 5.6922 115.813 5.6922C115.813 5.6922 116.065 5.6922 116.491 5.6922C116.57 5.6922 116.665 5.6922 116.76 5.6922C118.276 5.6922 119.728 5.6922 121.213 5.6922C121.276 5.6922 121.323 5.6922 121.386 5.6922C121.497 5.6922 121.592 5.6922 121.686 5.6922C122.302 5.6922 122.792 5.2029 122.792 4.60311V1.93562C122.792 1.4621 122.413 1.0675 121.939 1.0675C121.371 1.0675 120.786 1.13064 120.218 1.20956C119.618 1.28848 119.034 1.28848 118.465 1.24113C117.739 1.17799 117.028 1.0675 116.302 1.0675C115.939 1.0675 115.576 1.0675 115.213 1.0675C115.149 1.0675 115.086 1.0675 115.023 1.0675C113.791 1.17799 112.655 1.17799 111.312 1.0675C111.265 1.0675 111.202 1.0675 111.155 1.0675C109.986 1.0675 108.976 1.0675 108.281 1.0675Z" fill="#1F074D"/>
<path d="M133.292 21.413C133.292 21.413 133.292 21.4288 133.308 21.4288C133.323 21.4604 133.323 21.5077 133.323 21.5393C133.292 21.6182 133.244 21.6971 133.229 21.776C133.118 22.3916 132.534 22.9283 131.808 22.9598C131.744 22.9598 131.681 22.9756 131.618 22.9756C130.702 22.9756 129.976 22.2338 129.976 21.3341C129.976 21.3341 129.976 21.1289 129.976 20.7817C129.976 20.7343 129.976 20.6712 129.976 20.6238C130.023 19.6768 130.023 18.8244 129.976 17.8301C129.976 17.7827 129.976 17.7354 129.976 17.688C129.976 17.4197 129.976 17.1514 129.976 16.883C129.976 16.3306 129.913 15.7939 129.881 15.2415C129.85 14.4839 129.929 13.6947 129.976 12.9844C129.976 12.9528 129.976 12.9055 129.976 12.8739C129.976 12.4635 129.976 12.0373 129.976 11.7375C129.976 11.2797 129.597 10.9167 129.139 10.9167C129.123 10.9167 129.108 10.9167 129.092 10.9167C128.397 10.8851 127.734 10.8693 127.071 10.8851C127.007 10.8851 126.944 10.8851 126.881 10.8851C126.265 10.8693 125.776 10.8693 125.144 10.9167C125.097 10.9167 125.05 10.9167 125.002 10.9167C124.528 10.9167 124.102 10.9167 123.755 10.9167C123.297 10.9167 122.934 11.2797 122.934 11.7375C122.934 12.2583 122.934 13.0002 122.934 13.8367C122.934 13.8841 122.934 13.9946 122.934 14.0419C122.95 14.5312 122.95 15.9676 122.918 16.9462C122.902 17.4986 122.855 18.051 122.902 18.6035C122.934 18.9034 123.06 19.1243 123.044 19.44C123.044 19.4874 122.934 19.6294 122.934 19.661C122.934 20.6712 122.934 21.3499 122.934 21.3499C122.934 22.1864 123.044 22.9914 123.265 23.749C123.281 23.7806 123.281 23.8122 123.297 23.8595C123.565 24.7908 124.039 25.5168 124.544 26.4007C124.592 26.4481 124.623 26.5112 124.671 26.5586C125.034 27.0321 125.429 27.4583 125.871 27.8529C125.918 27.9002 125.965 27.9318 126.013 27.9791C126.581 28.7841 127.686 29.0367 128.571 29.4628C128.634 29.4786 128.697 29.5102 128.76 29.526C129.644 29.8259 130.608 29.9995 131.587 29.9995C132.123 29.9995 132.66 29.9521 133.181 29.8574C133.213 29.8574 133.26 29.8417 133.292 29.8417C134.176 29.5418 135.187 29.3208 135.945 28.8473C136.197 28.6894 136.45 28.2633 136.671 28.0738C136.86 27.916 137.05 27.9791 137.239 27.8055C137.76 27.332 138.313 26.8427 138.739 26.2271C138.771 26.164 138.818 26.1166 138.85 26.0535C138.976 25.8641 139.087 25.6747 139.197 25.4695C139.466 24.9802 139.608 24.4435 139.734 23.9069C139.813 23.5754 139.892 23.244 139.987 22.9125C140.129 22.3758 140.255 21.8392 140.255 21.2867C140.255 21.0816 140.255 20.1977 140.255 18.9192C140.255 18.8876 140.255 18.8402 140.255 18.8087C140.208 17.467 140.081 16.0149 140.255 14.7364C140.255 14.6891 140.255 14.6417 140.255 14.5786C140.255 13.963 140.255 13.3316 140.255 12.6845C140.255 12.1321 140.16 11.5796 140.145 11.0272C140.113 10.1591 140.287 9.27516 140.271 8.40704C140.271 8.34391 140.271 8.28077 140.271 8.21763C140.224 7.47579 140.224 6.876 140.271 6.11837C140.271 6.07102 140.271 6.03945 140.271 6.00788C140.271 5.73955 140.271 5.48701 140.271 5.28182C140.271 4.82408 139.908 4.44527 139.434 4.44527C139.181 4.44527 138.897 4.44527 138.581 4.44527C138.534 4.44527 138.502 4.44527 138.455 4.44527C137.745 4.44527 137.129 4.44527 136.497 4.44527C136.434 4.44527 136.387 4.44527 136.323 4.44527C135.613 4.57154 134.997 4.44527 134.223 4.44527C134.192 4.44527 134.144 4.44527 134.113 4.44527C134.113 4.44527 134.097 4.44527 134.081 4.44527C133.623 4.44527 133.244 4.8083 133.244 5.26603C133.244 5.96053 133.244 7.03384 133.244 8.32812C133.244 8.37547 133.339 8.59645 133.339 8.6438C133.276 9.84338 133.181 11.0114 133.26 12.2583C133.26 12.3057 133.26 12.3688 133.26 12.4162C133.26 12.5582 133.26 12.7161 133.26 12.8581C133.26 12.9055 133.26 12.9528 133.26 13.0002C133.308 14.1682 133.308 15.494 133.26 16.741C133.26 16.7883 133.26 16.8357 133.26 16.8672C133.26 17.7354 133.26 18.5088 133.26 19.1875C133.26 19.2348 133.26 19.2822 133.26 19.3138C133.181 19.9925 133.655 20.5923 133.308 21.3499C133.292 21.3815 133.292 21.3972 133.292 21.413Z" fill="#1F074D"/>
<path d="M154.277 13.016C154.277 13.016 154.024 12.7318 153.582 12.2741C153.534 12.211 153.471 12.1478 153.408 12.0847C152.792 11.3744 152.192 10.7746 151.576 10.0959C151.529 10.0328 151.482 9.96965 151.419 9.9223C150.913 9.32251 150.408 8.72272 149.824 8.23342C149.792 8.18607 149.745 8.13871 149.697 8.09136C148.861 7.44422 148.245 6.52875 147.424 5.64485C147.376 5.5975 147.345 5.56593 147.313 5.51858C146.508 4.65046 145.813 3.90861 145.324 3.37196C145.071 3.10363 144.613 3.27726 144.613 3.64029C144.613 4.49262 144.613 5.81847 144.613 7.44422C144.613 7.50736 144.613 7.57049 144.613 7.63363C144.613 8.9437 144.771 10.1591 144.629 11.4691C144.629 11.548 144.629 11.627 144.629 11.6901C144.629 12.3057 144.629 12.9213 144.629 13.5526C144.629 13.6157 144.629 13.6789 144.629 13.742C144.629 15.2257 144.629 16.7568 144.629 18.2562C144.629 18.3194 144.629 18.3667 144.629 18.4299C144.629 18.6982 144.834 19.1559 144.834 19.4242C144.834 19.6926 144.645 19.7557 144.645 20.024C144.645 21.0342 144.645 22.0128 144.645 22.9914C144.645 23.0388 144.645 23.0861 144.645 23.1493C144.645 23.2124 144.645 23.2597 144.645 23.3229C144.645 24.0174 144.755 24.6961 144.787 25.3748C144.818 26.2271 144.661 27.0163 144.645 27.9002C144.645 27.9791 144.645 28.0423 144.645 28.1054C144.645 28.4369 144.645 28.721 144.645 28.9578C144.645 29.526 145.103 29.9837 145.671 29.9837H153.266C153.834 29.9837 154.276 29.526 154.308 28.9578C154.34 28.358 154.34 27.6635 154.261 27.0795C154.261 27.0005 154.245 26.9216 154.245 26.8427C154.15 25.6905 154.087 24.4435 154.308 23.2755C154.308 23.2124 154.308 23.1493 154.308 23.0861C154.308 20.4344 154.308 18.051 154.308 18.051C154.308 18.051 156.013 19.882 157.987 22.0128C158.034 22.0602 158.066 22.1075 158.113 22.1549C158.524 22.7389 159.14 23.1966 159.645 23.7017C160.135 24.1752 160.529 24.7434 160.987 25.2485C161.492 25.7852 162.077 26.5112 162.629 27.0163C162.661 27.0479 162.692 27.0795 162.724 27.111C162.929 27.332 163.103 27.5214 163.261 27.695C163.514 27.9634 163.956 27.774 163.956 27.4109C163.956 26.6217 163.956 25.4064 163.956 23.9384C163.956 23.8753 163.956 23.828 163.94 23.7648C163.782 23.023 163.656 22.2969 163.735 21.5393C163.798 20.8606 163.956 20.1819 163.956 19.5032C163.956 18.1773 163.956 16.7883 163.956 15.3835C163.956 15.3204 163.956 15.2731 163.956 15.2099C164.114 13.9946 163.798 12.9213 163.814 11.8006C163.829 11.1061 163.956 10.4274 163.956 9.73289C163.956 9.22781 163.956 8.72272 163.956 8.2492C163.956 8.20185 163.956 8.13871 163.956 8.07558C163.861 6.9707 163.861 5.75534 163.956 4.72938C163.956 4.65046 163.956 4.57154 163.956 4.49262C163.956 3.95597 163.956 3.49823 163.956 3.11942C163.956 2.55119 163.498 2.07768 162.929 2.07768C162.787 2.07768 162.629 2.07768 162.456 2.07768C162.408 2.07768 162.361 2.07768 162.314 2.07768C161.461 2.10924 160.403 2.10924 159.519 2.07768C159.456 2.07768 159.392 2.07768 159.329 2.07768C158.429 2.10924 157.513 2.10924 156.645 2.07768C156.598 2.07768 156.534 2.07768 156.487 2.07768C156.045 2.07768 155.666 2.07768 155.334 2.07768C154.766 2.07768 154.308 2.53541 154.308 3.10363C154.308 3.49823 154.308 3.98753 154.308 4.52419C154.308 4.57154 154.308 4.63468 154.308 4.68203C154.308 4.69781 154.308 4.69781 154.308 4.7136C154.34 5.39231 154.45 6.07102 154.498 6.74973C154.498 6.84443 154.513 6.95492 154.513 7.04962C154.513 8.69115 154.34 7.44422 154.34 9.08575C154.34 9.63819 154.324 10.1748 154.308 10.6799C154.308 10.7273 154.308 10.7904 154.308 10.8378C154.276 12.1321 154.277 13.016 154.277 13.016Z" fill="#1F074D"/>
</svg>
