<svg width="172" height="44" viewBox="0 0 172 44" fill="none" xmlns="http://www.w3.org/2000/svg">
<path d="M17.084 24.0409C16.2313 23.078 16.0576 21.4996 16.7208 20.4579C16.7682 20.379 16.8313 20.3001 16.8945 20.2211C16.9577 20.1422 17.0208 20.0633 17.084 20.0002C17.9051 19.1794 19.0893 18.9742 20.1156 19.353C20.7472 19.5898 21.4893 19.6371 21.9788 19.1478C21.9946 19.1321 22.0104 19.1163 22.0262 19.1005C22.0894 19.0374 22.1683 18.9584 22.2473 18.8953C23.3052 18.5007 23.4946 17.6168 24.1736 16.9539C24.221 16.9065 24.2841 16.8434 24.3315 16.796C24.4894 16.6382 24.6473 16.4804 24.8052 16.3225C24.8526 16.2752 24.8999 16.2278 24.9631 16.1647C25.5 15.5964 26.0052 14.9493 26.5579 14.3811C27.1263 13.8129 27.7737 13.3393 28.3421 12.7869C28.5316 12.5975 28.7211 12.4081 28.879 12.2503C29.3527 11.7767 29.3369 11.0033 28.8316 10.5772C26.9526 8.98297 24.7894 7.92545 22.5157 7.40458C22.4209 7.38879 22.3104 7.35722 22.2157 7.34144C20.6525 6.67851 19.0735 7.19939 17.4314 7.12047C17.3366 7.12047 17.2419 7.13625 17.1314 7.15203C16.2471 7.02576 15.5366 7.38879 14.8734 7.62555C14.7945 7.65712 14.6997 7.6729 14.605 7.70447C13.2313 8.14642 11.8891 8.77778 10.6575 9.61433C10.5628 9.67747 10.4838 9.7406 10.4049 9.80374C9.83646 10.293 9.34697 10.8297 8.81012 11.3348C8.2259 11.8557 7.5943 12.3607 7.12061 12.9921C5.76268 14.7915 4.86267 16.8118 4.42055 18.9111C4.40476 19.0058 4.38897 19.1005 4.35739 19.1952C4.31002 19.6371 4.19949 20.0791 4.08896 20.521C4.05738 20.6157 4.04159 20.6947 4.02581 20.7894C3.91528 21.5944 4.19949 22.2573 4.13633 22.9991C4.12054 23.1254 4.13633 23.2517 4.16791 23.3779C4.1837 23.4726 4.1837 23.5831 4.19949 23.6778C4.4995 26.4558 5.589 29.1706 7.45219 31.4593C7.48377 31.4909 7.51535 31.5382 7.54693 31.5856C8.32063 32.9746 9.72593 33.4955 10.847 34.553C10.926 34.6161 11.0207 34.6635 11.0996 34.7108C13.1997 36.0367 15.5524 36.7943 17.9366 36.9837C18.0314 36.9837 18.1261 36.9995 18.2208 36.9995C20.6683 37.0153 22.9578 36.668 25.1684 35.7526C25.2631 35.7052 25.3578 35.6736 25.4368 35.6263C26.6368 35.0738 27.7737 34.3478 28.8158 33.4639C29.3211 33.0219 29.3211 32.2485 28.8474 31.775C28.2474 31.1594 27.3631 30.2913 26.4316 29.3601C25.9579 28.8865 25.3421 28.6024 24.8684 28.1447C24.4262 27.7027 24.1104 27.0714 23.621 26.5505C23.5736 26.5032 23.5262 26.4558 23.4789 26.4085C22.8946 25.8244 22.3736 25.3036 21.963 24.8932C21.4893 24.4197 20.7314 24.467 20.0998 24.7038C19.263 25.0195 18.2998 24.9248 17.5261 24.4197C17.4471 24.3723 17.3682 24.3092 17.2892 24.2461C17.2261 24.1671 17.1629 24.104 17.084 24.0409Z" fill="#1F074D"/>
<path d="M37.0581 11.7294C36.537 11.7294 36.016 11.7609 35.5107 11.8399C34.9738 11.9188 34.437 12.0451 33.9317 12.2503C33.6159 12.3765 33.3001 12.5186 32.9685 12.6606C32.4633 12.8658 31.9422 13.0552 31.4843 13.3551C31.4369 13.3867 31.3896 13.4183 31.358 13.4498C31.2948 13.4972 31.2474 13.5288 31.1843 13.5603C30.1737 14.1443 29.5737 15.1071 28.7369 15.9595C28.7053 16.0068 28.6579 16.07 28.6263 16.1173C27.9947 17.1591 27.521 18.2324 27.1105 19.4162C27.0947 19.4793 27.0789 19.5424 27.0631 19.6056C26.8895 20.3632 26.7947 21.1682 26.7947 21.9732C26.7947 23.2043 27.0158 24.3881 27.4105 25.493C27.4263 25.5561 27.4579 25.6193 27.4895 25.6824C27.8842 27.0398 28.6105 28.0026 29.5264 28.9339C29.5737 28.9812 29.6211 29.0286 29.6685 29.0759C29.7158 29.1233 29.7632 29.1706 29.8106 29.218C29.8579 29.2654 29.9053 29.3127 29.9527 29.3601C30.679 30.1808 31.658 30.7806 32.6369 31.2226C32.7001 31.2541 32.7475 31.2857 32.8106 31.3015C33.1106 31.4435 33.4107 31.554 33.7107 31.6645C33.7738 31.6803 33.837 31.7119 33.9001 31.7276C34.2791 31.8066 34.6738 31.8381 35.0686 31.9171C35.6054 32.0118 36.1265 32.2012 36.6791 32.2327C36.8055 32.2327 36.9476 32.2327 37.0897 32.2327C37.9265 32.2327 38.7318 32.138 39.5213 31.9486C39.5529 31.9328 39.5845 31.9328 39.6318 31.9171C40.3582 31.7434 40.9582 31.3804 41.7477 31.1279C41.8108 31.0963 41.874 31.0647 41.9214 31.0332C42.7582 30.5912 43.5319 30.023 44.2109 29.3758C44.2583 29.3285 44.3056 29.2811 44.353 29.2338C44.6372 28.8708 44.7793 28.5077 45.0162 28.2078C45.332 27.7659 45.8057 27.4502 46.0741 26.9767C46.8951 25.493 47.3688 23.8041 47.3688 21.9889C47.3688 21.1208 47.2583 20.2685 47.053 19.4635C47.0373 19.4004 47.0215 19.3372 47.0057 19.2583C46.7688 18.6112 46.5162 18.0114 46.2636 17.3485C46.232 17.2853 46.2004 17.2222 46.1688 17.1591C46.1372 17.0959 46.1057 17.0328 46.0741 16.9854C46.0425 16.9223 46.0109 16.8749 45.9793 16.8118C45.8688 16.433 45.6004 16.2436 45.3635 16.0068C45.0793 15.7069 44.9214 15.3123 44.6372 15.0124C44.1161 14.4442 43.5161 13.9391 42.8845 13.4972C42.4266 13.1815 41.9056 13.0079 41.4003 12.8027C40.6582 12.487 39.9792 12.0451 39.1739 11.9346C39.1108 11.9188 39.0476 11.903 38.9687 11.8872C38.3213 11.7925 37.7055 11.7294 37.0581 11.7294ZM37.1686 23.9462C36.7265 23.9935 36.2528 23.9304 35.8896 23.662C35.6686 23.5042 35.5265 23.2675 35.416 23.0149C35.3844 22.9676 35.3528 22.9202 35.337 22.8729C35.3054 22.8255 35.2896 22.7781 35.2581 22.7308C35.2423 22.6677 35.2107 22.6203 35.1949 22.5572C35.1791 22.5256 35.1791 22.4783 35.1633 22.4467C35.1002 22.1626 34.9738 21.8942 34.9265 21.6101C34.8475 21.0577 35.4949 20.6157 35.9686 20.379C36.016 20.3474 36.0791 20.3158 36.1265 20.2843C36.3949 20.1422 36.7107 20.0475 37.0581 20.0475C37.2002 20.0475 37.3265 20.0633 37.4528 20.0791C37.8318 20.158 38.2265 20.2527 38.5108 20.5053C38.9213 20.8367 38.9845 21.4523 39.0002 21.9889C39.0002 22.0521 39.0002 22.0994 39.0002 22.1468C38.9845 22.2888 38.9687 22.4467 38.9213 22.573C38.9055 22.6361 38.8739 22.6992 38.8581 22.7466C38.6371 23.4411 37.9107 23.8041 37.1686 23.9462Z" fill="#1F074D"/>
<path d="M55.3427 7.83074C55.3427 7.37301 54.9795 7.00998 54.5216 7.00998C53.969 7.00998 53.4006 7.0889 52.8479 7.0889C52.3584 7.0889 51.8374 7.00998 51.3795 7.00998C51.3005 7.00998 51.2216 7.00998 51.1426 7.00998C50.4952 7.00998 49.8478 7.00998 49.0741 7.00998C48.4268 6.99419 47.9215 7.53085 47.9215 8.17799C47.9215 8.66729 47.9215 9.31444 47.9215 10.0563C47.9215 10.151 47.9215 10.2457 47.9215 10.3404C47.9689 11.6662 48.1268 12.8658 47.9215 14.2706C47.9215 14.3337 47.9215 14.3969 47.9215 14.46C47.9215 15.5807 47.9215 16.7645 47.9215 17.9798C47.9215 18.043 47.9215 18.1061 47.9215 18.1692C47.9689 19.4004 47.9689 20.6 47.9215 21.7206C47.9215 21.7838 47.9215 21.8469 47.9215 21.91C47.9215 23.3148 47.9215 24.7196 47.9215 26.077C47.9215 26.2664 47.9215 26.4558 47.9215 26.6452C47.9689 27.1345 47.9689 27.8132 47.9215 28.3183C47.9215 28.5077 47.9215 28.6813 47.9215 28.855C47.9215 28.8865 47.9215 28.9023 47.9215 28.9181C47.9215 29.6915 48.0478 30.4807 48.0794 31.2541C48.0794 31.4435 48.0794 31.6329 48.0794 31.8381C48.0478 32.6116 47.9215 33.385 47.9215 34.1584C47.9215 34.5056 47.9215 34.8213 47.9215 35.0739C47.9215 35.721 48.4583 36.2419 49.1057 36.2419C49.1531 36.2419 49.2005 36.2419 49.2636 36.2419C49.3426 36.2419 49.4373 36.2419 49.5321 36.2419C50.89 36.0682 52.4532 36.0682 53.8269 36.2419C53.89 36.2419 53.969 36.2419 54.0321 36.2419C54.4743 36.2419 54.948 36.2419 55.4059 36.2419C55.469 36.2419 55.5322 36.2419 55.5953 36.2419C56.369 36.2419 57.1743 36.084 57.9954 36.084C58.7691 36.084 59.5428 36.2419 60.3165 36.2419C61.706 36.2419 62.906 36.2419 63.7429 36.2419C64.3903 36.2419 64.9113 35.721 64.9113 35.0739C64.9113 34.9476 64.9113 34.8055 64.9113 34.6477C64.9113 34.5845 64.9113 34.5372 64.8955 34.4741C64.7376 33.7006 64.6745 32.9904 64.7376 32.2327C64.8008 31.4435 64.9113 30.6701 64.9113 29.8809C64.9113 29.7547 64.9113 29.6284 64.9113 29.5021C64.9113 29.439 64.9113 29.3758 64.9113 29.2969C64.8324 28.3025 64.8324 27.2766 64.9113 26.3295C64.9113 26.2506 64.9113 26.1559 64.9113 26.077C64.9113 25.5246 64.4692 25.051 63.9008 25.051C63.2218 25.051 62.5586 25.1931 61.8797 25.1931C61.1376 25.1931 60.3639 25.0353 59.7007 25.051C59.6375 25.051 59.5586 25.051 59.4954 25.051C58.4533 25.2089 57.6006 25.2089 56.6059 25.051C56.5111 25.051 56.4164 25.051 56.3375 25.051C55.7374 25.051 55.3427 25.051 55.3427 25.051C55.3427 25.051 55.3427 24.0409 55.3427 22.5098C55.3427 21.7364 55.248 20.963 55.2164 20.1738C55.169 18.8953 55.3585 17.5694 55.3427 16.212C55.3427 16.1489 55.3427 16.07 55.3427 15.991C55.3427 15.2176 55.3427 14.4442 55.3427 13.6866C55.3427 13.6077 55.3427 13.5288 55.3427 13.4656C55.3585 12.2976 55.3585 11.2716 55.3427 10.1036C55.3427 10.0563 55.3427 9.99315 55.3427 9.94579C55.3427 9.09346 55.3427 8.35161 55.3427 7.83074Z" fill="#1F074D"/>
<path d="M75.6326 7.26252C75.1115 7.26252 74.5905 7.29409 74.101 7.37301C73.5641 7.45193 73.0273 7.5782 72.522 7.78339C72.2062 7.90966 71.8904 8.05172 71.5588 8.19377C71.0536 8.39897 70.5325 8.58837 70.0746 8.88827C70.0272 8.91984 69.9799 8.9514 69.9483 8.96719C69.8851 9.01454 69.8377 9.04611 69.7746 9.07768C68.764 9.66168 68.164 10.6245 67.343 11.4611C67.3114 11.5084 67.264 11.5715 67.2324 11.6189C66.6166 12.6448 66.1271 13.7339 65.7166 14.902C65.7008 14.9651 65.685 15.0282 65.6692 15.0914C65.4956 15.849 65.4008 16.6382 65.4008 17.459C65.4008 18.6901 65.6219 19.8739 66.0166 20.963C66.0324 21.0261 66.064 21.0893 66.0956 21.1524C66.4903 22.5098 67.2166 23.4726 68.1325 24.4039C68.1798 24.4512 68.2272 24.4986 68.2746 24.546C68.3219 24.5933 68.3693 24.6407 68.4167 24.688C68.464 24.7354 68.5114 24.7827 68.5588 24.8301C69.2851 25.6508 70.2483 26.2506 71.243 26.6926C71.3062 26.7241 71.3536 26.7557 71.4167 26.7715C71.7167 26.9135 72.0167 27.024 72.3167 27.1345C72.3799 27.1503 72.4431 27.1819 72.5062 27.1977C72.8852 27.2766 73.2799 27.3081 73.6747 27.3871C74.2115 27.4818 74.7326 27.6712 75.2694 27.7027C75.3958 27.7027 75.5379 27.7027 75.68 27.7027C76.5168 27.7027 77.3221 27.608 78.0958 27.4186C78.1274 27.4028 78.159 27.4028 78.2064 27.3871C78.9327 27.2134 79.5327 26.8504 80.3222 26.5979C80.3853 26.5663 80.4485 26.5347 80.4959 26.5032C81.3327 26.0612 82.1064 25.493 82.7854 24.8458C82.8328 24.7985 82.8801 24.7511 82.9275 24.7038C83.2117 24.3408 83.3538 23.9777 83.5907 23.6778C83.9065 23.2517 84.3802 22.9202 84.6486 22.4467C85.4697 20.9788 85.9434 19.2741 85.9434 17.459C85.9434 16.5908 85.8328 15.7385 85.6276 14.9335C85.6118 14.8704 85.596 14.8073 85.5802 14.7283C85.3433 14.0812 85.1065 13.4814 84.8381 12.8185C84.8065 12.7553 84.7749 12.6922 84.7433 12.6448C84.7118 12.5817 84.6802 12.5186 84.6486 12.4712C84.617 12.4081 84.5854 12.3607 84.5539 12.2976C84.4433 11.9188 84.1749 11.7294 83.9381 11.4926C83.6538 11.1927 83.4959 10.7981 83.2117 10.4982C82.6907 9.93001 82.1064 9.42492 81.4591 8.99876C81.0169 8.69886 80.4801 8.50945 79.9906 8.30426C79.2485 7.98858 78.5695 7.56242 77.78 7.43614C77.7169 7.42036 77.6537 7.40458 77.5748 7.38879C76.8958 7.30987 76.2642 7.26252 75.6326 7.26252ZM75.7431 19.4319C75.301 19.4793 74.8273 19.4162 74.4642 19.1478C74.2431 18.99 74.101 18.7532 73.9905 18.5007C73.9589 18.4533 73.9273 18.406 73.9115 18.3586C73.8799 18.3113 73.8642 18.2639 73.8326 18.2166C73.8168 18.1692 73.7852 18.1061 73.7694 18.043C73.7536 18.0114 73.7536 17.964 73.7378 17.9325C73.6747 17.6484 73.5484 17.38 73.501 17.0959C73.422 16.5435 74.0694 16.1173 74.5431 15.8806C74.5905 15.849 74.6536 15.8174 74.701 15.7859C74.9694 15.6438 75.2852 15.5491 75.6326 15.5491C75.7589 15.5491 75.901 15.5649 76.0274 15.5807C76.4063 15.6596 76.7853 15.7543 77.0853 16.0068C77.4958 16.3383 77.559 16.9539 77.5748 17.4905C77.5748 17.5537 77.5748 17.601 77.5748 17.6484C77.559 17.7904 77.5432 17.9325 77.4958 18.0745C77.48 18.1377 77.4484 18.2008 77.4327 18.2482C77.1958 18.9426 76.4853 19.3057 75.7431 19.4319Z" fill="#1F074D"/>
<path d="M106.454 16.8118C106.454 15.6438 106.186 14.5231 105.681 13.513C105.649 13.4498 105.617 13.3709 105.57 13.3078C105.128 12.4397 104.686 11.7136 103.896 11.098C103.833 11.0507 103.786 10.9875 103.723 10.9402C103.233 9.97736 102.223 9.83531 101.323 9.29865C101.259 9.26708 101.181 9.23552 101.117 9.20395C101.054 9.17238 100.991 9.14081 100.928 9.10924C100.865 9.07768 100.802 9.04611 100.738 9.03032C99.9016 8.66729 99.0331 8.38318 98.0068 8.24113C97.9278 8.22534 97.8489 8.20956 97.7699 8.19377C97.1699 8.09907 96.5541 8.05172 95.9225 8.05172C95.9225 8.05172 95.7015 8.05172 95.3383 8.05172C95.2594 8.05172 95.1962 8.05172 95.1014 8.05172C94.2172 7.92545 93.3488 8.08329 92.4803 8.05172C92.4172 8.05172 92.354 8.05172 92.2909 8.05172C91.4698 8.05172 90.6645 8.05172 90.0487 8.05172C89.4961 8.05172 89.054 8.47789 89.054 9.03032C89.054 9.07768 89.054 9.14081 89.054 9.18816C89.054 9.2513 89.054 9.29865 89.054 9.36179C88.975 10.3877 88.975 11.2559 89.054 12.3292C89.054 12.3765 89.054 12.4239 89.054 12.4712C89.054 12.5975 89.054 12.7396 89.054 12.8658C89.054 12.9132 89.054 12.9605 89.054 13.0079C88.975 14.0181 88.975 15.1703 89.054 16.2278C89.054 16.2752 89.054 16.3225 89.054 16.3856C89.054 17.2064 89.054 18.043 89.054 18.8953C89.054 18.9584 89.054 19.0216 89.054 19.0847C88.975 20.2527 88.975 21.2787 89.054 22.4625C89.054 22.5256 89.054 22.573 89.054 22.6361C89.054 23.078 89.054 23.52 89.054 23.9462C89.054 24.0093 89.054 24.0724 89.054 24.1356C89.0066 24.8932 88.9908 25.5719 89.0066 26.298C89.0224 26.9609 89.1487 27.608 89.1961 28.271C89.2119 28.5551 89.2119 28.8392 89.1961 29.1233C89.1487 29.7862 89.0382 30.4334 89.0382 31.0963C89.0382 31.333 89.0382 31.5382 89.0382 31.7119C89.0382 32.2643 89.4961 32.7063 90.0329 32.7063C90.0487 32.7063 90.0803 32.7063 90.0961 32.7063C90.6961 32.722 91.3435 32.722 91.9435 32.722C92.0224 32.722 92.1014 32.722 92.1645 32.722C93.0014 32.722 93.7277 32.722 94.6278 32.722C94.6751 32.722 94.7067 32.722 94.7541 32.722C94.8014 32.722 94.833 32.722 94.8804 32.722C95.433 32.722 95.8594 32.2801 95.8594 31.7276C95.8594 31.6803 95.8594 31.6487 95.8594 31.6014C95.8594 31.554 95.8594 31.5067 95.8594 31.4593C95.9067 30.4807 95.6541 29.5337 95.812 28.6182C95.8278 28.5551 95.8436 28.4762 95.8594 28.3972C95.9067 27.6396 95.9067 26.7715 95.8594 26.0928C95.8594 26.0139 95.8594 25.9507 95.8594 25.9034C95.8594 25.6666 95.8594 25.5246 95.8594 25.5246C96.3488 25.5246 96.8225 25.493 97.2962 25.4456C97.2962 25.4456 97.612 26.0454 98.0541 26.8978C98.0699 26.9451 98.1015 26.9925 98.1173 27.024C98.5278 27.6396 98.8121 28.2236 99.0489 28.8234C99.0805 28.8708 99.0963 28.9339 99.1279 28.9812C99.2226 29.1549 99.3331 29.3285 99.4121 29.5021C99.4436 29.5652 99.4752 29.6284 99.5068 29.6757C99.6963 30.1019 99.9647 30.4649 100.202 30.8595C100.991 32.217 100.265 31.2541 101.054 32.6115C101.512 33.4007 102.223 34.5845 102.712 35.358C102.996 35.8315 103.612 36.0051 104.102 35.7368C104.291 35.6421 104.481 35.5474 104.702 35.4211C104.749 35.3895 104.796 35.3737 104.844 35.3422C105.175 35.1212 105.539 34.9318 105.902 34.7424C105.965 34.7108 106.028 34.6792 106.091 34.6477C106.423 34.4425 106.754 34.2215 107.118 34.0321C107.591 33.7796 108.081 33.3376 107.828 32.8641C107.228 31.7276 106.028 29.66 105.728 29.0917C105.696 29.0444 105.681 28.997 105.649 28.9655C105.254 28.4604 105.002 28.0342 104.796 27.5765C104.56 27.0398 104.37 26.4874 104.102 25.9665C104.07 25.6982 103.912 25.4614 103.723 25.1931C103.344 24.6564 103.091 24.0566 102.791 23.4726C102.744 23.3937 102.728 23.3464 102.728 23.3464C102.933 23.1885 103.138 23.0307 103.328 22.8729C103.391 22.8255 103.454 22.7624 103.517 22.715C104.117 22.0047 105.16 21.6891 105.349 20.6789C105.365 20.6 105.365 20.521 105.381 20.4263C105.854 19.8423 106.281 19.1163 106.328 18.185C106.344 18.1061 106.36 18.043 106.36 17.964C106.423 17.5852 106.454 17.2064 106.454 16.8118ZM95.9225 13.9865C96.1752 13.9865 96.4278 14.0181 96.6646 14.0654C97.1699 14.1759 97.691 14.3022 98.0857 14.6494C98.4805 14.9967 98.7173 15.5333 98.9857 15.9279C99.0173 16.0068 99.0331 16.07 99.0647 16.1489C99.1279 16.3699 99.1594 16.5908 99.1594 16.8276C99.1594 17.1433 99.0963 17.4432 98.9857 17.7273C98.9542 17.8062 98.9226 17.8693 98.891 17.9325C98.4331 18.548 98.1489 19.1321 97.4068 19.3372C97.3278 19.3688 97.2489 19.4004 97.1699 19.4319C96.791 19.574 96.3646 19.6529 95.9225 19.6529C95.9225 19.6529 95.9225 18.9426 95.9225 18.0272C95.9225 17.9798 95.9225 17.9167 95.9225 17.8536C95.8594 17.2695 95.7804 16.7013 95.7962 16.1173C95.812 15.4544 95.9225 14.7915 95.9225 14.1285C95.9225 14.0338 95.9225 13.9865 95.9225 13.9865Z" fill="#1F074D"/>
<path d="M112.281 8.0675C111.697 8.0675 111.254 8.57259 111.286 9.1566C111.302 9.31444 111.302 9.47227 111.302 9.63011C111.286 10.3562 111.191 11.0822 111.191 11.8083C111.191 12.2187 111.302 12.3292 111.302 12.7869C111.302 12.85 111.191 13.2446 111.191 13.292C111.191 14.4442 111.175 15.5964 111.175 16.7645C111.175 16.8592 111.175 16.9381 111.175 17.0328C111.081 17.5852 111.207 18.0903 111.254 18.5954C111.27 18.6743 111.27 18.7532 111.286 18.8164C111.302 19.1952 111.318 19.5424 111.302 19.8897C111.27 20.6157 111.16 21.326 111.16 22.0521C111.16 22.6203 111.16 23.157 111.175 23.741C111.175 23.8199 111.175 23.8988 111.175 23.9777C111.175 24.0409 111.175 24.1198 111.175 24.1829C111.175 24.5775 111.175 24.9563 111.175 25.3351C111.175 25.4141 111.175 25.493 111.175 25.5719C111.318 26.3295 111.318 27.1345 111.16 28.0026C111.16 28.0973 111.16 28.1763 111.16 28.271C111.16 29.3285 111.16 30.386 111.175 31.412C111.175 31.4593 111.175 31.5225 111.175 31.5698C111.175 32.7063 111.175 33.6533 111.175 34.332C111.175 34.9318 111.665 35.4211 112.265 35.4211C112.818 35.4211 113.528 35.4211 114.286 35.4211C114.349 35.4211 114.412 35.4211 114.476 35.4211C115.96 35.358 117.239 35.358 118.691 35.4211C119.307 35.4527 119.781 34.9318 119.781 34.3162C119.781 33.8901 119.781 33.3534 119.781 32.7852C119.781 32.722 119.781 32.6589 119.781 32.5958C119.813 31.6803 119.655 30.749 119.67 29.7862C119.686 29.0444 119.781 28.0026 119.781 27.2766C119.781 26.9609 119.781 26.7715 119.781 26.7715C120.286 26.7715 120.791 26.6136 121.313 26.5979C121.786 26.5821 122.244 26.7084 122.67 26.7557C123.286 26.8346 123.776 26.298 123.776 25.6824C123.776 25.635 123.776 25.5877 123.776 25.5403C123.776 25.493 123.776 25.4456 123.776 25.3825C123.697 24.5775 123.697 23.7725 123.776 22.9518C123.776 22.8729 123.76 22.7939 123.76 22.715C123.697 21.5312 123.697 20.3159 123.776 19.1321C123.776 19.0689 123.776 19.0216 123.776 18.9742C123.776 18.8479 123.776 18.7375 123.776 18.627C123.776 18.0272 123.286 17.5379 122.686 17.5379C122.623 17.5379 122.576 17.5379 122.513 17.5379C121.897 17.5221 121.218 17.7589 120.539 17.6326C120.302 17.5852 120.065 17.5379 119.813 17.5379C119.813 17.5379 119.813 17.1591 119.813 16.6224C119.813 15.8963 119.576 15.5017 119.639 14.7757C119.686 14.2706 119.844 13.7655 119.813 13.2289C119.813 13.1499 119.813 13.071 119.813 13.0079C119.813 12.8185 119.813 12.6922 119.813 12.6922C119.813 12.6922 120.065 12.6922 120.491 12.6922C120.57 12.6922 120.665 12.6922 120.76 12.6922C122.276 12.6922 123.728 12.6922 125.213 12.6922C125.276 12.6922 125.323 12.6922 125.386 12.6922C125.497 12.6922 125.592 12.6922 125.686 12.6922C126.302 12.6922 126.792 12.2029 126.792 11.6031V8.93562C126.792 8.4621 126.413 8.0675 125.939 8.0675C125.371 8.0675 124.786 8.13064 124.218 8.20956C123.618 8.28848 123.034 8.28848 122.465 8.24113C121.739 8.17799 121.028 8.0675 120.302 8.0675C119.939 8.0675 119.576 8.0675 119.213 8.0675C119.149 8.0675 119.086 8.0675 119.023 8.0675C117.791 8.17799 116.655 8.17799 115.312 8.0675C115.265 8.0675 115.202 8.0675 115.155 8.0675C113.986 8.0675 112.976 8.0675 112.281 8.0675Z" fill="#1F074D"/>
<path d="M137.292 28.413C137.292 28.413 137.292 28.4288 137.308 28.4288C137.323 28.4604 137.323 28.5077 137.323 28.5393C137.292 28.6182 137.244 28.6971 137.229 28.776C137.118 29.3916 136.534 29.9283 135.808 29.9598C135.744 29.9598 135.681 29.9756 135.618 29.9756C134.702 29.9756 133.976 29.2338 133.976 28.3341C133.976 28.3341 133.976 28.1289 133.976 27.7817C133.976 27.7343 133.976 27.6712 133.976 27.6238C134.023 26.6768 134.023 25.8244 133.976 24.8301C133.976 24.7827 133.976 24.7354 133.976 24.688C133.976 24.4197 133.976 24.1514 133.976 23.883C133.976 23.3306 133.913 22.7939 133.881 22.2415C133.85 21.4839 133.929 20.6947 133.976 19.9844C133.976 19.9528 133.976 19.9055 133.976 19.8739C133.976 19.4635 133.976 19.0373 133.976 18.7375C133.976 18.2797 133.597 17.9167 133.139 17.9167C133.123 17.9167 133.108 17.9167 133.092 17.9167C132.397 17.8851 131.734 17.8693 131.071 17.8851C131.007 17.8851 130.944 17.8851 130.881 17.8851C130.265 17.8693 129.776 17.8693 129.144 17.9167C129.097 17.9167 129.05 17.9167 129.002 17.9167C128.528 17.9167 128.102 17.9167 127.755 17.9167C127.297 17.9167 126.934 18.2797 126.934 18.7375C126.934 19.2583 126.934 20.0002 126.934 20.8367C126.934 20.8841 126.934 20.9946 126.934 21.0419C126.95 21.5312 126.95 22.9676 126.918 23.9462C126.902 24.4986 126.855 25.051 126.902 25.6035C126.934 25.9034 127.06 26.1243 127.044 26.44C127.044 26.4874 126.934 26.6294 126.934 26.661C126.934 27.6712 126.934 28.3499 126.934 28.3499C126.934 29.1864 127.044 29.9914 127.265 30.749C127.281 30.7806 127.281 30.8122 127.297 30.8595C127.565 31.7908 128.039 32.5168 128.544 33.4007C128.592 33.4481 128.623 33.5112 128.671 33.5586C129.034 34.0321 129.429 34.4583 129.871 34.8529C129.918 34.9002 129.965 34.9318 130.013 34.9791C130.581 35.7841 131.686 36.0367 132.571 36.4628C132.634 36.4786 132.697 36.5102 132.76 36.526C133.644 36.8259 134.608 36.9995 135.587 36.9995C136.123 36.9995 136.66 36.9521 137.181 36.8574C137.213 36.8574 137.26 36.8417 137.292 36.8417C138.176 36.5418 139.187 36.3208 139.945 35.8473C140.197 35.6894 140.45 35.2633 140.671 35.0738C140.86 34.916 141.05 34.9791 141.239 34.8055C141.76 34.332 142.313 33.8427 142.739 33.2271C142.771 33.164 142.818 33.1166 142.85 33.0535C142.976 32.8641 143.087 32.6747 143.197 32.4695C143.466 31.9802 143.608 31.4435 143.734 30.9069C143.813 30.5754 143.892 30.244 143.987 29.9125C144.129 29.3758 144.255 28.8392 144.255 28.2867C144.255 28.0816 144.255 27.1977 144.255 25.9192C144.255 25.8876 144.255 25.8402 144.255 25.8087C144.208 24.467 144.081 23.0149 144.255 21.7364C144.255 21.6891 144.255 21.6417 144.255 21.5786C144.255 20.963 144.255 20.3316 144.255 19.6845C144.255 19.1321 144.16 18.5796 144.145 18.0272C144.113 17.1591 144.287 16.2752 144.271 15.407C144.271 15.3439 144.271 15.2808 144.271 15.2176C144.224 14.4758 144.224 13.876 144.271 13.1184C144.271 13.071 144.271 13.0394 144.271 13.0079C144.271 12.7396 144.271 12.487 144.271 12.2818C144.271 11.8241 143.908 11.4453 143.434 11.4453C143.181 11.4453 142.897 11.4453 142.581 11.4453C142.534 11.4453 142.502 11.4453 142.455 11.4453C141.745 11.4453 141.129 11.4453 140.497 11.4453C140.434 11.4453 140.387 11.4453 140.323 11.4453C139.613 11.5715 138.997 11.4453 138.223 11.4453C138.192 11.4453 138.144 11.4453 138.113 11.4453C138.113 11.4453 138.097 11.4453 138.081 11.4453C137.623 11.4453 137.244 11.8083 137.244 12.266C137.244 12.9605 137.244 14.0338 137.244 15.3281C137.244 15.3755 137.339 15.5964 137.339 15.6438C137.276 16.8434 137.181 18.0114 137.26 19.2583C137.26 19.3057 137.26 19.3688 137.26 19.4162C137.26 19.5582 137.26 19.7161 137.26 19.8581C137.26 19.9055 137.26 19.9528 137.26 20.0002C137.308 21.1682 137.308 22.494 137.26 23.741C137.26 23.7883 137.26 23.8357 137.26 23.8672C137.26 24.7354 137.26 25.5088 137.26 26.1875C137.26 26.2348 137.26 26.2822 137.26 26.3138C137.181 26.9925 137.655 27.5923 137.308 28.3499C137.292 28.3815 137.292 28.3972 137.292 28.413Z" fill="#1F074D"/>
<path d="M158.277 20.016C158.277 20.016 158.024 19.7318 157.582 19.2741C157.534 19.211 157.471 19.1478 157.408 19.0847C156.792 18.3744 156.192 17.7746 155.576 17.0959C155.529 17.0328 155.482 16.9697 155.419 16.9223C154.913 16.3225 154.408 15.7227 153.824 15.2334C153.792 15.1861 153.745 15.1387 153.697 15.0914C152.861 14.4442 152.245 13.5288 151.424 12.6448C151.376 12.5975 151.345 12.5659 151.313 12.5186C150.508 11.6505 149.813 10.9086 149.324 10.372C149.071 10.1036 148.613 10.2773 148.613 10.6403C148.613 11.4926 148.613 12.8185 148.613 14.4442C148.613 14.5074 148.613 14.5705 148.613 14.6336C148.613 15.9437 148.771 17.1591 148.629 18.4691C148.629 18.548 148.629 18.627 148.629 18.6901C148.629 19.3057 148.629 19.9213 148.629 20.5526C148.629 20.6157 148.629 20.6789 148.629 20.742C148.629 22.2257 148.629 23.7568 148.629 25.2562C148.629 25.3194 148.629 25.3667 148.629 25.4299C148.629 25.6982 148.834 26.1559 148.834 26.4242C148.834 26.6926 148.645 26.7557 148.645 27.024C148.645 28.0342 148.645 29.0128 148.645 29.9914C148.645 30.0388 148.645 30.0861 148.645 30.1493C148.645 30.2124 148.645 30.2597 148.645 30.3229C148.645 31.0174 148.755 31.6961 148.787 32.3748C148.818 33.2271 148.661 34.0163 148.645 34.9002C148.645 34.9791 148.645 35.0423 148.645 35.1054C148.645 35.4369 148.645 35.721 148.645 35.9578C148.645 36.526 149.103 36.9837 149.671 36.9837H157.266C157.834 36.9837 158.276 36.526 158.308 35.9578C158.34 35.358 158.34 34.6635 158.261 34.0795C158.261 34.0005 158.245 33.9216 158.245 33.8427C158.15 32.6905 158.087 31.4435 158.308 30.2755C158.308 30.2124 158.308 30.1493 158.308 30.0861C158.308 27.4344 158.308 25.051 158.308 25.051C158.308 25.051 160.013 26.882 161.987 29.0128C162.034 29.0602 162.066 29.1075 162.113 29.1549C162.524 29.7389 163.14 30.1966 163.645 30.7017C164.135 31.1752 164.529 31.7434 164.987 32.2485C165.492 32.7852 166.077 33.5112 166.629 34.0163C166.661 34.0479 166.692 34.0795 166.724 34.111C166.929 34.332 167.103 34.5214 167.261 34.695C167.514 34.9634 167.956 34.774 167.956 34.4109C167.956 33.6217 167.956 32.4064 167.956 30.9384C167.956 30.8753 167.956 30.828 167.94 30.7648C167.782 30.023 167.656 29.2969 167.735 28.5393C167.798 27.8606 167.956 27.1819 167.956 26.5032C167.956 25.1773 167.956 23.7883 167.956 22.3835C167.956 22.3204 167.956 22.2731 167.956 22.2099C168.114 20.9946 167.798 19.9213 167.814 18.8006C167.829 18.1061 167.956 17.4274 167.956 16.7329C167.956 16.2278 167.956 15.7227 167.956 15.2492C167.956 15.2018 167.956 15.1387 167.956 15.0756C167.861 13.9707 167.861 12.7553 167.956 11.7294C167.956 11.6505 167.956 11.5715 167.956 11.4926C167.956 10.956 167.956 10.4982 167.956 10.1194C167.956 9.55119 167.498 9.07768 166.929 9.07768C166.787 9.07768 166.629 9.07768 166.456 9.07768C166.408 9.07768 166.361 9.07768 166.314 9.07768C165.461 9.10924 164.403 9.10924 163.519 9.07768C163.456 9.07768 163.392 9.07768 163.329 9.07768C162.429 9.10924 161.513 9.10924 160.645 9.07768C160.598 9.07768 160.534 9.07768 160.487 9.07768C160.045 9.07768 159.666 9.07768 159.334 9.07768C158.766 9.07768 158.308 9.53541 158.308 10.1036C158.308 10.4982 158.308 10.9875 158.308 11.5242C158.308 11.5715 158.308 11.6347 158.308 11.682C158.308 11.6978 158.308 11.6978 158.308 11.7136C158.34 12.3923 158.45 13.071 158.498 13.7497C158.498 13.8444 158.513 13.9549 158.513 14.0496C158.513 15.6912 158.34 14.4442 158.34 16.0858C158.34 16.6382 158.324 17.1748 158.308 17.6799C158.308 17.7273 158.308 17.7904 158.308 17.8378C158.276 19.1321 158.277 20.016 158.277 20.016Z" fill="#1F074D"/>
</svg>
